<svg width="1686" height="597" viewBox="0 0 1686 597" fill="none" xmlns="http://www.w3.org/2000/svg">
<path fill-rule="evenodd" clip-rule="evenodd" d="M206.241 148.097C206.172 143.176 205.162 109.891 203.995 74.1305C202.829 38.3702 201.946 8.99772 202.034 8.85832C202.381 8.30502 313.825 40.1802 314.018 40.8883C314.133 41.3054 292.215 65.1275 265.313 93.8261C238.411 122.525 214.142 148.489 211.383 151.525L206.366 157.044L206.241 148.097Z" fill="#2A8A9D"/>
<path fill-rule="evenodd" clip-rule="evenodd" d="M196.715 332.364C196.715 328.547 206.237 173.887 206.562 172.427C206.778 171.458 282.627 201.57 306.75 212.204C308.433 212.946 299.037 223.777 256.282 270.379C193.202 339.134 196.715 335.479 196.715 332.364Z" fill="#2A8A9D"/>
<path fill-rule="evenodd" clip-rule="evenodd" d="M62.4744 256.838C41.4929 239.53 24.1961 225.027 24.037 224.61C23.7486 223.855 190.855 172.857 191.502 173.504C191.854 173.856 188.367 178.28 133.459 247.132L100.622 288.307L62.4744 256.838Z" fill="#2A8A9D"/>
<path fill-rule="evenodd" clip-rule="evenodd" d="M98.5858 132.681C50.1917 119.064 10.3828 107.701 10.1215 107.43C9.36848 106.65 55.2102 41.0226 56.5375 40.9801C57.1937 40.9591 86.4135 66.5278 121.47 97.7999C156.527 129.072 186.054 155.312 187.086 156.111C188.117 156.911 188.424 157.537 187.768 157.503C187.112 157.469 146.98 146.299 98.5858 132.681Z" fill="#2A8A9D"/>
<path fill-rule="evenodd" clip-rule="evenodd" d="M133.486 98.5128C97.7261 66.6366 67.5146 39.6265 66.3499 38.4904C64.3374 36.5274 67.4448 35.7292 128.85 22.4364C164.389 14.7429 193.764 8.74484 194.126 9.10754C194.879 9.85974 199.286 143.627 198.814 151.388L198.505 156.47L133.486 98.5128Z" fill="#53B1C3"/>
<path fill-rule="evenodd" clip-rule="evenodd" d="M13.3277 166.31C10.6065 138.27 8.4784 115.253 8.5986 115.16C9.4111 114.532 188.179 165.448 187.469 166.105C186.554 166.952 21.1772 217.291 19.308 217.291C18.7401 217.291 16.0489 194.349 13.3277 166.31Z" fill="#53B1C3"/>
<path fill-rule="evenodd" clip-rule="evenodd" d="M147.547 315.974C125.426 303.364 107.442 292.67 107.582 292.209C107.967 290.943 198.206 177.814 198.53 178.191C199.104 178.859 189.02 338.976 188.406 338.94C188.055 338.919 169.669 328.584 147.547 315.974Z" fill="#53B1C3"/>
<path fill-rule="evenodd" clip-rule="evenodd" d="M261.592 185.801C235.924 175.183 213.767 165.98 212.353 165.349C209.999 164.298 214.252 159.427 263.095 107.233C292.416 75.8993 316.622 50.4793 316.887 50.7436C317.151 51.0079 316.818 62.1493 316.146 75.5022C315.473 88.8551 314.319 122.328 313.581 149.886C312.842 177.445 312.004 201.2 311.718 202.677C311.432 204.153 310.538 205.304 309.73 205.234C308.922 205.164 287.26 196.419 261.592 185.801Z" fill="#53B1C3"/>
<path fill-rule="evenodd" clip-rule="evenodd" d="M319.59 187.963C319.58 172.926 323.043 75.0247 324.138 59.255L324.963 47.3622L353.218 78.6552L381.473 109.948L350.992 154.374C334.227 178.808 320.304 199.023 320.053 199.297C319.801 199.57 319.592 194.47 319.59 187.963Z" fill="#7900FF"/>
<path fill-rule="evenodd" clip-rule="evenodd" d="M465.141 241.551C465.141 226.454 464.786 195.493 464.351 172.748L463.562 131.395L497.457 131.513C516.1 131.578 535.755 131.981 541.135 132.408L550.918 133.184L508.03 201.092L465.141 269.001V241.551Z" fill="#7900FF"/>
<path fill-rule="evenodd" clip-rule="evenodd" d="M496.379 310.546L470.042 283.308L508.902 276.498C530.274 272.752 548.026 269.953 548.35 270.277C549.09 271.017 524.474 337.784 523.46 337.784C523.051 337.784 510.865 325.527 496.379 310.546Z" fill="#7900FF"/>
<path fill-rule="evenodd" clip-rule="evenodd" d="M410.55 369.996C409.222 367.043 401.08 349.372 392.457 330.726C383.834 312.081 377.199 296.467 377.714 296.029C378.731 295.163 455.812 285.109 456.461 285.758C456.679 285.976 446.982 306.227 434.912 330.759L412.965 375.364L410.55 369.996Z" fill="#7900FF"/>
<path fill-rule="evenodd" clip-rule="evenodd" d="M389.982 242.269C353.566 225.306 323.262 211.235 322.641 211C322.02 210.765 336.436 188.807 354.676 162.205L387.84 113.836L419.631 122.037C437.116 126.547 452.543 130.534 453.914 130.897C456.365 131.546 456.419 132.275 457.195 174.619C458.239 231.641 458.194 273.391 457.088 273.237C456.596 273.168 426.398 259.233 389.982 242.269Z" fill="#C18AFF"/>
<path fill-rule="evenodd" clip-rule="evenodd" d="M470.687 274.257C477.13 263.751 556.207 138.917 556.819 138.285C557.28 137.81 562.061 149.206 567.445 163.608L577.234 189.795L565.172 224.719C558.538 243.927 552.705 260.092 552.209 260.641C551.496 261.43 474.506 275.696 470.738 275.737C470.207 275.747 470.184 275.077 470.687 274.257Z" fill="#C18AFF"/>
<path fill-rule="evenodd" clip-rule="evenodd" d="M349.691 255.554C337.075 237.139 326.753 221.85 326.753 221.579C326.753 221.132 449.581 277.685 450.41 278.514C450.603 278.707 434.804 280.877 415.302 283.335C395.799 285.793 378.219 288.081 376.236 288.419C372.691 289.025 372.239 288.464 349.691 255.554Z" fill="#D6B1FF"/>
<path fill-rule="evenodd" clip-rule="evenodd" d="M453.211 392.426C434.511 386.517 419.07 381.553 418.898 381.393C418.726 381.233 428.846 360.216 441.386 334.688L464.186 288.275L492.092 316.907C507.441 332.654 519.87 346.172 519.711 346.946C519.28 349.051 488.5 403.395 487.808 403.273C487.48 403.215 471.912 398.334 453.211 392.426Z" fill="#D6B1FF"/>
<path fill-rule="evenodd" clip-rule="evenodd" d="M439.877 425.172C429.639 406.307 421.392 390.729 421.551 390.552C421.71 390.376 436.011 394.63 453.333 400.005L484.825 409.779L472.299 434.613C465.409 448.272 459.485 459.453 459.133 459.459C458.781 459.469 450.116 444.036 439.877 425.172Z" fill="#4D70F6"/>
<path fill-rule="evenodd" clip-rule="evenodd" d="M335.776 441.335C335.449 439.827 333.556 423.323 331.57 404.66L327.958 370.728L344.247 344.414C353.206 329.941 362.721 314.491 365.391 310.08C368.06 305.67 370.614 302.449 371.065 302.922C372.185 304.099 407.893 381.755 407.815 382.845C407.781 383.323 395.835 393.74 381.27 405.992C366.705 418.244 350.644 431.826 345.58 436.173C336.961 443.569 336.333 443.9 335.776 441.335Z" fill="#4D70F6"/>
<path fill-rule="evenodd" clip-rule="evenodd" d="M364.929 490.337C351.478 469.922 340.472 452.561 340.472 451.758C340.472 450.956 356.598 436.617 376.308 419.894L412.143 389.489L433.413 428.843C454.219 467.338 454.631 468.239 452.289 470.097C450.971 471.142 436.641 484.345 420.443 499.436C404.246 514.528 390.631 527.006 390.189 527.166C389.747 527.326 378.38 510.753 364.929 490.337Z" fill="#1632A1"/>
<path fill-rule="evenodd" clip-rule="evenodd" d="M222.38 384.716C203.18 355.521 197.874 346.633 198.671 345.004C199.235 343.849 225.198 315.145 256.365 281.217C310.522 222.262 313.046 219.704 313.319 223.48C313.476 225.653 315.214 256.153 317.181 291.257C319.148 326.361 320.898 357.575 321.07 360.622L321.384 366.161L284.25 394.245L247.116 422.33L222.38 384.716Z" fill="#FF6400"/>
<path fill-rule="evenodd" clip-rule="evenodd" d="M327.935 353.79C327.925 352.533 326.321 324.124 324.361 290.66C322.4 257.197 320.794 229.053 320.792 228.119C320.792 227.184 330.988 241.384 343.455 259.674C355.921 277.963 366.122 293.346 366.122 293.857C366.122 294.63 329.818 354.034 328.401 355.58C328.151 355.853 327.941 355.048 327.935 353.79Z" fill="#F5A16B"/>
<path fill-rule="evenodd" clip-rule="evenodd" d="M270.193 497.551C269.166 493.995 264.301 477.146 259.381 460.109C254.461 443.072 250.831 428.796 251.313 428.385C251.795 427.974 267.636 415.996 286.514 401.767C307.34 386.07 321.027 376.495 321.319 377.419C321.584 378.257 323.43 394.243 325.422 412.943L329.043 446.944L300.551 475.481L272.059 504.017L270.193 497.551Z" fill="#F5A16B"/>
<path fill-rule="evenodd" clip-rule="evenodd" d="M261.607 586.278C261.991 583.79 263.654 572.895 265.305 562.069C266.955 551.242 269.529 535.674 271.025 527.472L273.745 512.559L301.442 485.155L329.138 457.75V518.857C329.138 552.466 328.931 579.964 328.678 579.964C327.441 579.964 266.135 589.568 263.708 590.142C261.065 590.767 260.949 590.552 261.607 586.278Z" fill="#CD2429"/>
<path fill-rule="evenodd" clip-rule="evenodd" d="M336.297 518.611C336.297 487.396 336.501 461.857 336.751 461.857C337.136 461.857 380.934 527.792 383.237 531.837C383.878 532.965 351.331 563.412 339.032 573.191L336.297 575.365V518.611Z" fill="#FF4E54"/>
<path d="M331.873 583.776C337.396 583.776 341.873 579.299 341.873 573.776C341.873 568.254 337.396 563.776 331.873 563.776C326.35 563.776 321.873 568.254 321.873 573.776C321.873 579.299 326.35 583.776 331.873 583.776Z" fill="black"/>
<path d="M264.994 596.62C270.517 596.62 274.994 592.143 274.994 586.62C274.994 581.097 270.517 576.62 264.994 576.62C259.471 576.62 254.994 581.097 254.994 586.62C254.994 592.143 259.471 596.62 264.994 596.62Z" fill="black"/>
<path d="M272.934 517.682C278.456 517.682 282.934 513.204 282.934 507.682C282.934 502.159 278.456 497.682 272.934 497.682C267.411 497.682 262.934 502.159 262.934 507.682C262.934 513.204 267.411 517.682 272.934 517.682Z" fill="black"/>
<path d="M248.934 433.838C254.456 433.838 258.934 429.361 258.934 423.838C258.934 418.315 254.456 413.838 248.934 413.838C243.411 413.838 238.934 418.315 238.934 423.838C238.934 429.361 243.411 433.838 248.934 433.838Z" fill="black"/>
<path d="M194.414 346.993C199.937 346.993 204.414 342.516 204.414 336.993C204.414 331.47 199.937 326.993 194.414 326.993C188.891 326.993 184.414 331.47 184.414 336.993C184.414 342.516 188.891 346.993 194.414 346.993Z" fill="black"/>
<path d="M104.713 299.063C110.236 299.063 114.713 294.586 114.713 289.063C114.713 283.54 110.236 279.063 104.713 279.063C99.19 279.063 94.7129 283.54 94.7129 289.063C94.7129 294.586 99.19 299.063 104.713 299.063Z" fill="black"/>
<path d="M64.6816 50.2737C70.2045 50.2737 74.6816 45.7965 74.6816 40.2737C74.6816 34.7508 70.2045 30.2737 64.6816 30.2737C59.1588 30.2737 54.6816 34.7508 54.6816 40.2737C54.6816 45.7965 59.1588 50.2737 64.6816 50.2737Z" fill="black"/>
<path d="M10.6211 123.587C16.1439 123.587 20.6211 119.11 20.6211 113.587C20.6211 108.064 16.1439 103.587 10.6211 103.587C5.09825 103.587 0.621094 108.064 0.621094 113.587C0.621094 119.11 5.09825 123.587 10.6211 123.587Z" fill="black"/>
<path d="M22.0996 230.747C27.6225 230.747 32.0996 226.27 32.0996 220.747C32.0996 215.224 27.6225 210.747 22.0996 210.747C16.5768 210.747 12.0996 215.224 12.0996 220.747C12.0996 226.27 16.5768 230.747 22.0996 230.747Z" fill="black"/>
<path d="M200.047 174.432C205.57 174.432 210.047 169.954 210.047 164.432C210.047 158.909 205.57 154.432 200.047 154.432C194.524 154.432 190.047 158.909 190.047 164.432C190.047 169.954 194.524 174.432 200.047 174.432Z" fill="black"/>
<path d="M385.342 538.994C390.865 538.994 395.342 534.517 395.342 528.994C395.342 523.472 390.865 518.994 385.342 518.994C379.819 518.994 375.342 523.472 375.342 528.994C375.342 534.517 379.819 538.994 385.342 538.994Z" fill="black"/>
<path d="M455.186 469.776C460.708 469.776 465.186 465.299 465.186 459.776C465.186 454.254 460.708 449.776 455.186 449.776C449.663 449.776 445.186 454.254 445.186 459.776C445.186 465.299 449.663 469.776 455.186 469.776Z" fill="black"/>
<path d="M333.559 460.369C339.081 460.369 343.559 455.892 343.559 450.369C343.559 444.846 339.081 440.369 333.559 440.369C328.036 440.369 323.559 444.846 323.559 450.369C323.559 455.892 328.036 460.369 333.559 460.369Z" fill="black"/>
<path d="M322.715 374.151C328.238 374.151 332.715 369.674 332.715 364.151C332.715 358.628 328.238 354.151 322.715 354.151C317.192 354.151 312.715 358.628 312.715 364.151C312.715 369.674 317.192 374.151 322.715 374.151Z" fill="black"/>
<path d="M415.09 391.838C420.613 391.838 425.09 387.361 425.09 381.838C425.09 376.315 420.613 371.838 415.09 371.838C409.567 371.838 405.09 376.315 405.09 381.838C405.09 387.361 409.567 391.838 415.09 391.838Z" fill="black"/>
<path d="M487.029 413.838C492.552 413.838 497.029 409.361 497.029 403.838C497.029 398.315 492.552 393.838 487.029 393.838C481.506 393.838 477.029 398.315 477.029 403.838C477.029 409.361 481.506 413.838 487.029 413.838Z" fill="black"/>
<path d="M511.906 340.028C517.429 340.028 521.906 335.551 521.906 330.028C521.906 324.505 517.429 320.028 511.906 320.028C506.383 320.028 501.906 324.505 501.906 330.028C501.906 335.551 506.383 340.028 511.906 340.028Z" fill="black"/>
<path d="M545.279 275.899C550.802 275.899 555.279 271.422 555.279 265.899C555.279 260.377 550.802 255.899 545.279 255.899C539.756 255.899 535.279 260.377 535.279 265.899C535.279 271.422 539.756 275.899 545.279 275.899Z" fill="black"/>
<path d="M577.186 199.212C582.708 199.212 587.186 194.735 587.186 189.212C587.186 183.69 582.708 179.212 577.186 179.212C571.663 179.212 567.186 183.69 567.186 189.212C567.186 194.735 571.663 199.212 577.186 199.212Z" fill="black"/>
<path d="M550.811 146.804C556.333 146.804 560.811 142.327 560.811 136.804C560.811 131.282 556.333 126.804 550.811 126.804C545.288 126.804 540.811 131.282 540.811 136.804C540.811 142.327 545.288 146.804 550.811 146.804Z" fill="black"/>
<path d="M462.715 288.525C468.238 288.525 472.715 284.048 472.715 278.525C472.715 273.002 468.238 268.525 462.715 268.525C457.192 268.525 452.715 273.002 452.715 278.525C452.715 284.048 457.192 288.525 462.715 288.525Z" fill="black"/>
<path d="M372.246 304.056C377.769 304.056 382.246 299.579 382.246 294.056C382.246 288.533 377.769 284.056 372.246 284.056C366.723 284.056 362.246 288.533 362.246 294.056C362.246 299.579 366.723 304.056 372.246 304.056Z" fill="black"/>
<path d="M316.029 222.73C321.552 222.73 326.029 218.253 326.029 212.73C326.029 207.207 321.552 202.73 316.029 202.73C310.506 202.73 306.029 207.207 306.029 212.73C306.029 218.253 310.506 222.73 316.029 222.73Z" fill="black"/>
<path d="M383.029 122.743C388.552 122.743 393.029 118.266 393.029 112.743C393.029 107.22 388.552 102.743 383.029 102.743C377.506 102.743 373.029 107.22 373.029 112.743C373.029 118.266 377.506 122.743 383.029 122.743Z" fill="black"/>
<path d="M457.873 142.587C463.396 142.587 467.873 138.11 467.873 132.587C467.873 127.064 463.396 122.587 457.873 122.587C452.35 122.587 447.873 127.064 447.873 132.587C447.873 138.11 452.35 142.587 457.873 142.587Z" fill="black"/>
<path d="M317.342 57.6482C322.865 57.6482 327.342 53.171 327.342 47.6482C327.342 42.1253 322.865 37.6482 317.342 37.6482C311.819 37.6482 307.342 42.1253 307.342 47.6482C307.342 53.171 311.819 57.6482 317.342 57.6482Z" fill="black"/>
<path d="M198.402 20.9609C203.925 20.9609 208.402 16.4838 208.402 10.9609C208.402 5.43809 203.925 0.960938 198.402 0.960938C192.879 0.960938 188.402 5.43809 188.402 10.9609C188.402 16.4838 192.879 20.9609 198.402 20.9609Z" fill="black"/>
<path fill-rule="evenodd" clip-rule="evenodd" d="M685.461 88.828V542.169V88.828Z" fill="#59E4FF"/>
<path d="M685.461 88.828V542.169" stroke="#2A8A9D" stroke-width="30" stroke-linecap="round" stroke-linejoin="round"/>
<path d="M763.913 191.439V94.4699H802.171C809.526 94.4699 815.791 95.8745 820.968 98.6839C826.145 101.462 830.091 105.328 832.805 110.284C835.551 115.208 836.925 120.89 836.925 127.33C836.925 133.769 835.536 139.451 832.758 144.375C829.98 149.299 825.956 153.135 820.684 155.881C815.444 158.627 809.099 160 801.65 160H777.266V143.57H798.336C802.281 143.57 805.533 142.891 808.089 141.534C810.678 140.145 812.603 138.236 813.866 135.805C815.16 133.343 815.807 130.518 815.807 127.33C815.807 124.11 815.16 121.301 813.866 118.902C812.603 116.471 810.678 114.593 808.089 113.267C805.501 111.91 802.218 111.231 798.241 111.231H784.415V191.439H763.913ZM881.55 192.86C874.196 192.86 867.835 191.297 862.469 188.172C857.134 185.016 853.015 180.628 850.111 175.009C847.207 169.359 845.755 162.809 845.755 155.36C845.755 147.847 847.207 141.282 850.111 135.663C853.015 130.013 857.134 125.625 862.469 122.5C867.835 119.344 874.196 117.765 881.55 117.765C888.905 117.765 895.25 119.344 900.584 122.5C905.951 125.625 910.086 130.013 912.99 135.663C915.894 141.282 917.346 147.847 917.346 155.36C917.346 162.809 915.894 169.359 912.99 175.009C910.086 180.628 905.951 185.016 900.584 188.172C895.25 191.297 888.905 192.86 881.55 192.86ZM881.645 177.235C884.991 177.235 887.785 176.288 890.026 174.394C892.267 172.468 893.956 169.848 895.092 166.534C896.26 163.22 896.844 159.448 896.844 155.218C896.844 150.988 896.26 147.216 895.092 143.902C893.956 140.587 892.267 137.967 890.026 136.042C887.785 134.116 884.991 133.153 881.645 133.153C878.268 133.153 875.427 134.116 873.122 136.042C870.85 137.967 869.129 140.587 867.961 143.902C866.825 147.216 866.257 150.988 866.257 155.218C866.257 159.448 866.825 163.22 867.961 166.534C869.129 169.848 870.85 172.468 873.122 174.394C875.427 176.288 878.268 177.235 881.645 177.235ZM930.461 191.439V118.712H950.016V131.402H950.774C952.099 126.888 954.325 123.479 957.45 121.174C960.575 118.839 964.173 117.671 968.245 117.671C969.255 117.671 970.344 117.734 971.512 117.86C972.68 117.986 973.706 118.16 974.59 118.381V136.278C973.643 135.994 972.333 135.742 970.66 135.521C968.987 135.3 967.456 135.189 966.067 135.189C963.1 135.189 960.449 135.837 958.113 137.131C955.808 138.393 953.978 140.161 952.62 142.434C951.295 144.706 950.632 147.326 950.632 150.294V191.439H930.461ZM1027.35 118.712V133.864H983.551V118.712H1027.35ZM993.494 101.288H1013.66V169.091C1013.66 170.953 1013.95 172.405 1014.52 173.447C1015.08 174.457 1015.87 175.167 1016.88 175.578C1017.93 175.988 1019.12 176.193 1020.48 176.193C1021.43 176.193 1022.38 176.114 1023.32 175.956C1024.27 175.767 1025 175.625 1025.5 175.53L1028.67 190.54C1027.66 190.855 1026.24 191.218 1024.41 191.629C1022.58 192.071 1020.36 192.339 1017.74 192.434C1012.87 192.623 1008.61 191.976 1004.95 190.492C1001.32 189.009 998.497 186.704 996.477 183.58C994.456 180.455 993.462 176.509 993.494 171.742V101.288ZM1061.23 192.812C1056.59 192.812 1052.45 192.008 1048.82 190.398C1045.19 188.756 1042.32 186.341 1040.2 183.153C1038.12 179.934 1037.08 175.925 1037.08 171.127C1037.08 167.086 1037.82 163.693 1039.3 160.947C1040.79 158.201 1042.81 155.991 1045.36 154.318C1047.92 152.645 1050.82 151.383 1054.08 150.53C1057.36 149.678 1060.8 149.078 1064.4 148.731C1068.63 148.289 1072.04 147.879 1074.63 147.5C1077.21 147.09 1079.09 146.49 1080.26 145.701C1081.43 144.912 1082.01 143.744 1082.01 142.197V141.913C1082.01 138.914 1081.06 136.594 1079.17 134.953C1077.31 133.311 1074.66 132.491 1071.22 132.491C1067.59 132.491 1064.7 133.296 1062.55 134.905C1060.4 136.484 1058.98 138.472 1058.29 140.871L1039.63 139.356C1040.58 134.937 1042.44 131.118 1045.22 127.898C1048 124.647 1051.58 122.153 1055.97 120.417C1060.39 118.649 1065.5 117.765 1071.31 117.765C1075.35 117.765 1079.22 118.239 1082.91 119.186C1086.64 120.133 1089.93 121.6 1092.81 123.589C1095.71 125.578 1098 128.135 1099.67 131.26C1101.35 134.353 1102.18 138.062 1102.18 142.386V191.439H1083.05V181.354H1082.48C1081.32 183.627 1079.75 185.631 1077.8 187.367C1075.84 189.072 1073.49 190.413 1070.74 191.392C1068 192.339 1064.82 192.812 1061.23 192.812ZM1067 178.892C1069.97 178.892 1072.59 178.308 1074.86 177.14C1077.13 175.941 1078.92 174.331 1080.21 172.311C1081.51 170.29 1082.15 168.002 1082.15 165.445V157.727C1081.52 158.138 1080.65 158.516 1079.55 158.864C1078.48 159.179 1077.26 159.479 1075.9 159.763C1074.55 160.016 1073.19 160.253 1071.83 160.473C1070.47 160.663 1069.24 160.837 1068.14 160.994C1065.77 161.342 1063.7 161.894 1061.94 162.652C1060.17 163.409 1058.8 164.435 1057.82 165.729C1056.84 166.992 1056.35 168.57 1056.35 170.464C1056.35 173.21 1057.34 175.309 1059.33 176.761C1061.35 178.182 1063.91 178.892 1067 178.892ZM1138 94.4699V191.439H1117.83V94.4699H1138Z" fill="black"/>
<path d="M763.913 261.136H789.197L815.902 326.287H817.038L843.743 261.136H869.027V358.106H849.14V294.99H848.335L823.241 357.632H809.699L784.605 294.753H783.8V358.106H763.913V261.136ZM918.683 359.526C911.202 359.526 904.763 358.011 899.365 354.981C893.999 351.919 889.864 347.594 886.96 342.007C884.056 336.388 882.604 329.744 882.604 322.073C882.604 314.592 884.056 308.027 886.96 302.377C889.864 296.726 893.952 292.323 899.223 289.166C904.526 286.01 910.745 284.432 917.878 284.432C922.676 284.432 927.143 285.205 931.278 286.752C935.445 288.267 939.075 290.555 942.168 293.617C945.293 296.679 947.724 300.53 949.46 305.17C951.196 309.779 952.064 315.176 952.064 321.363V326.903H890.653V314.403H933.077C933.077 311.499 932.446 308.926 931.183 306.685C929.921 304.444 928.169 302.692 925.928 301.43C923.718 300.135 921.145 299.488 918.21 299.488C915.148 299.488 912.433 300.199 910.066 301.619C907.73 303.008 905.899 304.886 904.574 307.253C903.248 309.589 902.569 312.193 902.538 315.066V326.95C902.538 330.549 903.2 333.658 904.526 336.278C905.883 338.898 907.793 340.918 910.255 342.339C912.717 343.759 915.637 344.469 919.015 344.469C921.256 344.469 923.308 344.154 925.17 343.522C927.032 342.891 928.626 341.944 929.952 340.681C931.278 339.419 932.288 337.872 932.983 336.041L951.638 337.272C950.691 341.755 948.75 345.669 945.814 349.015C942.91 352.329 939.154 354.917 934.545 356.78C929.968 358.611 924.681 359.526 918.683 359.526ZM1003.91 285.379V300.53H960.113V285.379H1003.91ZM970.056 267.954H990.227V335.757C990.227 337.62 990.511 339.072 991.079 340.113C991.647 341.123 992.436 341.834 993.446 342.244C994.488 342.654 995.688 342.859 997.045 342.859C997.992 342.859 998.939 342.781 999.886 342.623C1000.83 342.433 1001.56 342.291 1002.06 342.197L1005.24 357.206C1004.23 357.522 1002.81 357.885 1000.97 358.295C999.144 358.737 996.919 359.005 994.299 359.1C989.438 359.289 985.176 358.642 981.515 357.159C977.885 355.675 975.059 353.371 973.039 350.246C971.019 347.121 970.025 343.175 970.056 338.409V267.954ZM1037.79 359.479C1033.15 359.479 1029.01 358.674 1025.38 357.064C1021.75 355.423 1018.88 353.008 1016.77 349.82C1014.68 346.6 1013.64 342.591 1013.64 337.793C1013.64 333.753 1014.38 330.359 1015.87 327.613C1017.35 324.867 1019.37 322.657 1021.93 320.984C1024.48 319.311 1027.39 318.049 1030.64 317.197C1033.92 316.344 1037.36 315.745 1040.96 315.397C1045.19 314.955 1048.6 314.545 1051.19 314.166C1053.78 313.756 1055.65 313.156 1056.82 312.367C1057.99 311.578 1058.57 310.41 1058.57 308.863V308.579C1058.57 305.58 1057.63 303.26 1055.73 301.619C1053.87 299.978 1051.22 299.157 1047.78 299.157C1044.15 299.157 1041.26 299.962 1039.11 301.572C1036.97 303.15 1035.55 305.139 1034.85 307.538L1016.2 306.022C1017.14 301.603 1019.01 297.784 1021.78 294.564C1024.56 291.313 1028.14 288.819 1032.53 287.083C1036.95 285.315 1042.07 284.432 1047.87 284.432C1051.91 284.432 1055.78 284.905 1059.47 285.852C1063.2 286.799 1066.5 288.267 1069.37 290.255C1072.27 292.244 1074.56 294.801 1076.24 297.926C1077.91 301.019 1078.74 304.728 1078.74 309.053V358.106H1059.62V348.02H1059.05C1057.88 350.293 1056.32 352.298 1054.36 354.034C1052.4 355.738 1050.05 357.08 1047.31 358.058C1044.56 359.005 1041.39 359.479 1037.79 359.479ZM1043.56 345.558C1046.53 345.558 1049.15 344.974 1051.42 343.806C1053.7 342.607 1055.48 340.997 1056.77 338.977C1058.07 336.957 1058.72 334.668 1058.72 332.111V324.394C1058.08 324.804 1057.22 325.183 1056.11 325.53C1055.04 325.846 1053.82 326.145 1052.47 326.43C1051.11 326.682 1049.75 326.919 1048.39 327.14C1047.04 327.329 1045.81 327.503 1044.7 327.661C1042.33 328.008 1040.27 328.56 1038.5 329.318C1036.73 330.075 1035.36 331.101 1034.38 332.395C1033.4 333.658 1032.91 335.236 1032.91 337.13C1032.91 339.876 1033.91 341.976 1035.89 343.428C1037.91 344.848 1040.47 345.558 1043.56 345.558ZM1094.77 358.106V261.136H1114.94V297.594H1115.56C1116.44 295.637 1117.72 293.649 1119.39 291.628C1121.1 289.577 1123.31 287.872 1126.02 286.515C1128.77 285.126 1132.18 284.432 1136.25 284.432C1141.55 284.432 1146.44 285.82 1150.93 288.598C1155.41 291.344 1158.99 295.495 1161.68 301.051C1164.36 306.575 1165.7 313.503 1165.7 321.837C1165.7 329.949 1164.39 336.799 1161.77 342.386C1159.18 347.941 1155.65 352.155 1151.16 355.028C1146.71 357.869 1141.73 359.289 1136.2 359.289C1132.29 359.289 1128.96 358.642 1126.21 357.348C1123.5 356.054 1121.27 354.428 1119.54 352.471C1117.8 350.483 1116.47 348.478 1115.56 346.458H1114.66V358.106H1094.77ZM1114.52 321.742C1114.52 326.067 1115.12 329.839 1116.32 333.058C1117.51 336.278 1119.25 338.787 1121.52 340.587C1123.8 342.354 1126.56 343.238 1129.81 343.238C1133.09 343.238 1135.87 342.339 1138.14 340.539C1140.42 338.709 1142.14 336.183 1143.3 332.964C1144.5 329.712 1145.1 325.972 1145.1 321.742C1145.1 317.544 1144.52 313.851 1143.35 310.663C1142.18 307.474 1140.46 304.981 1138.19 303.181C1135.92 301.382 1133.12 300.483 1129.81 300.483C1126.53 300.483 1123.75 301.351 1121.48 303.087C1119.24 304.823 1117.51 307.285 1116.32 310.473C1115.12 313.661 1114.52 317.418 1114.52 321.742ZM1212.02 359.526C1204.66 359.526 1198.3 357.964 1192.94 354.839C1187.6 351.682 1183.48 347.294 1180.58 341.676C1177.67 336.025 1176.22 329.476 1176.22 322.026C1176.22 314.514 1177.67 307.948 1180.58 302.329C1183.48 296.679 1187.6 292.291 1192.94 289.166C1198.3 286.01 1204.66 284.432 1212.02 284.432C1219.37 284.432 1225.72 286.01 1231.05 289.166C1236.42 292.291 1240.55 296.679 1243.46 302.329C1246.36 307.948 1247.81 314.514 1247.81 322.026C1247.81 329.476 1246.36 336.025 1243.46 341.676C1240.55 347.294 1236.42 351.682 1231.05 354.839C1225.72 357.964 1219.37 359.526 1212.02 359.526ZM1212.11 343.901C1215.46 343.901 1218.25 342.954 1220.49 341.06C1222.73 339.135 1224.42 336.515 1225.56 333.2C1226.73 329.886 1227.31 326.114 1227.31 321.884C1227.31 317.654 1226.73 313.882 1225.56 310.568C1224.42 307.253 1222.73 304.634 1220.49 302.708C1218.25 300.783 1215.46 299.82 1212.11 299.82C1208.74 299.82 1205.89 300.783 1203.59 302.708C1201.32 304.634 1199.6 307.253 1198.43 310.568C1197.29 313.882 1196.72 317.654 1196.72 321.884C1196.72 326.114 1197.29 329.886 1198.43 333.2C1199.6 336.515 1201.32 339.135 1203.59 341.06C1205.89 342.954 1208.74 343.901 1212.11 343.901ZM1281.1 261.136V358.106H1260.93V261.136H1281.1ZM1330.12 359.526C1322.76 359.526 1316.4 357.964 1311.04 354.839C1305.7 351.682 1301.58 347.294 1298.68 341.676C1295.77 336.025 1294.32 329.476 1294.32 322.026C1294.32 314.514 1295.77 307.948 1298.68 302.329C1301.58 296.679 1305.7 292.291 1311.04 289.166C1316.4 286.01 1322.76 284.432 1330.12 284.432C1337.47 284.432 1343.82 286.01 1349.15 289.166C1354.52 292.291 1358.65 296.679 1361.56 302.329C1364.46 307.948 1365.91 314.514 1365.91 322.026C1365.91 329.476 1364.46 336.025 1361.56 341.676C1358.65 347.294 1354.52 351.682 1349.15 354.839C1343.82 357.964 1337.47 359.526 1330.12 359.526ZM1330.21 343.901C1333.56 343.901 1336.35 342.954 1338.59 341.06C1340.83 339.135 1342.52 336.515 1343.66 333.2C1344.83 329.886 1345.41 326.114 1345.41 321.884C1345.41 317.654 1344.83 313.882 1343.66 310.568C1342.52 307.253 1340.83 304.634 1338.59 302.708C1336.35 300.783 1333.56 299.82 1330.21 299.82C1326.83 299.82 1323.99 300.783 1321.69 302.708C1319.42 304.634 1317.7 307.253 1316.53 310.568C1315.39 313.882 1314.82 317.654 1314.82 321.884C1314.82 326.114 1315.39 329.886 1316.53 333.2C1317.7 336.515 1319.42 339.135 1321.69 341.06C1323.99 342.954 1326.83 343.901 1330.21 343.901ZM1339.63 276.666L1330.12 265.113L1320.6 276.666H1303.41V276.004L1322.59 255.17H1337.6L1356.82 276.004V276.666H1339.63ZM1379.03 358.106V285.379H1398.25V298.21H1399.1C1400.62 293.949 1403.14 290.587 1406.68 288.125C1410.21 285.663 1414.44 284.432 1419.37 284.432C1424.36 284.432 1428.6 285.678 1432.11 288.172C1435.61 290.634 1437.94 293.98 1439.11 298.21H1439.87C1441.35 294.043 1444.04 290.713 1447.92 288.219C1451.83 285.694 1456.46 284.432 1461.79 284.432C1468.58 284.432 1474.09 286.594 1478.32 290.918C1482.58 295.211 1484.71 301.303 1484.71 309.195V358.106H1464.59V313.172C1464.59 309.132 1463.51 306.101 1461.37 304.081C1459.22 302.061 1456.54 301.051 1453.32 301.051C1449.66 301.051 1446.8 302.219 1444.75 304.555C1442.7 306.859 1441.67 309.905 1441.67 313.693V358.106H1422.11V312.746C1422.11 309.179 1421.09 306.338 1419.04 304.223C1417.02 302.108 1414.35 301.051 1411.04 301.051C1408.79 301.051 1406.77 301.619 1404.97 302.755C1403.21 303.86 1401.8 305.423 1400.76 307.443C1399.72 309.431 1399.2 311.767 1399.2 314.45V358.106H1379.03ZM1500.64 358.106V285.379H1520.81V358.106H1500.64ZM1510.77 276.004C1507.78 276.004 1505.2 275.009 1503.06 273.021C1500.94 271 1499.88 268.586 1499.88 265.776C1499.88 262.999 1500.94 260.615 1503.06 258.627C1505.2 256.606 1507.78 255.596 1510.77 255.596C1513.77 255.596 1516.33 256.606 1518.45 258.627C1520.59 260.615 1521.66 262.999 1521.66 265.776C1521.66 268.586 1520.59 271 1518.45 273.021C1516.33 275.009 1513.77 276.004 1510.77 276.004ZM1569.83 359.526C1562.38 359.526 1555.97 357.948 1550.61 354.791C1545.27 351.603 1541.17 347.184 1538.3 341.534C1535.45 335.883 1534.03 329.381 1534.03 322.026C1534.03 314.577 1535.47 308.043 1538.34 302.424C1541.25 296.774 1545.37 292.37 1550.7 289.214C1556.04 286.026 1562.38 284.432 1569.74 284.432C1576.08 284.432 1581.64 285.584 1586.4 287.888C1591.17 290.192 1594.94 293.428 1597.72 297.594C1600.5 301.761 1602.03 306.654 1602.31 312.272H1583.28C1582.74 308.642 1581.32 305.723 1579.02 303.513C1576.74 301.272 1573.76 300.151 1570.07 300.151C1566.94 300.151 1564.21 301.003 1561.88 302.708C1559.57 304.381 1557.77 306.827 1556.48 310.047C1555.18 313.267 1554.54 317.165 1554.54 321.742C1554.54 326.382 1555.17 330.328 1556.43 333.579C1557.72 336.83 1559.54 339.308 1561.88 341.013C1564.21 342.717 1566.94 343.57 1570.07 343.57C1572.37 343.57 1574.44 343.096 1576.27 342.149C1578.13 341.202 1579.66 339.829 1580.86 338.03C1582.09 336.199 1582.9 334.005 1583.28 331.448H1602.31C1602 337.004 1600.48 341.897 1597.77 346.126C1595.08 350.325 1591.37 353.607 1586.64 355.975C1581.9 358.342 1576.3 359.526 1569.83 359.526ZM1635.96 359.479C1631.32 359.479 1627.19 358.674 1623.56 357.064C1619.93 355.423 1617.06 353.008 1614.94 349.82C1612.86 346.6 1611.82 342.591 1611.82 337.793C1611.82 333.753 1612.56 330.359 1614.04 327.613C1615.52 324.867 1617.55 322.657 1620.1 320.984C1622.66 319.311 1625.56 318.049 1628.81 317.197C1632.1 316.344 1635.54 315.745 1639.14 315.397C1643.37 314.955 1646.77 314.545 1649.36 314.166C1651.95 313.756 1653.83 313.156 1655 312.367C1656.17 311.578 1656.75 310.41 1656.75 308.863V308.579C1656.75 305.58 1655.8 303.26 1653.91 301.619C1652.05 299.978 1649.39 299.157 1645.95 299.157C1642.32 299.157 1639.44 299.962 1637.29 301.572C1635.14 303.15 1633.72 305.139 1633.03 307.538L1614.37 306.022C1615.32 301.603 1617.18 297.784 1619.96 294.564C1622.74 291.313 1626.32 288.819 1630.71 287.083C1635.13 285.315 1640.24 284.432 1646.05 284.432C1650.09 284.432 1653.96 284.905 1657.65 285.852C1661.37 286.799 1664.67 288.267 1667.55 290.255C1670.45 292.244 1672.74 294.801 1674.41 297.926C1676.08 301.019 1676.92 304.728 1676.92 309.053V358.106H1657.79V348.02H1657.22C1656.06 350.293 1654.49 352.298 1652.54 354.034C1650.58 355.738 1648.23 357.08 1645.48 358.058C1642.73 359.005 1639.56 359.479 1635.96 359.479ZM1641.74 345.558C1644.71 345.558 1647.33 344.974 1649.6 343.806C1651.87 342.607 1653.66 340.997 1654.95 338.977C1656.24 336.957 1656.89 334.668 1656.89 332.111V324.394C1656.26 324.804 1655.39 325.183 1654.29 325.53C1653.21 325.846 1652 326.145 1650.64 326.43C1649.28 326.682 1647.93 326.919 1646.57 327.14C1645.21 327.329 1643.98 327.503 1642.88 327.661C1640.51 328.008 1638.44 328.56 1636.67 329.318C1634.91 330.075 1633.53 331.101 1632.55 332.395C1631.58 333.658 1631.09 335.236 1631.09 337.13C1631.09 339.876 1632.08 341.976 1634.07 343.428C1636.09 344.848 1638.65 345.558 1641.74 345.558Z" fill="black"/>
<path d="M763.913 524.772V427.802H802.739C809.873 427.802 815.823 428.86 820.589 430.975C825.356 433.09 828.938 436.025 831.337 439.782C833.736 443.506 834.936 447.799 834.936 452.66C834.936 456.448 834.178 459.778 832.663 462.651C831.148 465.492 829.065 467.828 826.413 469.658C823.793 471.458 820.795 472.736 817.417 473.494V474.441C821.11 474.598 824.567 475.64 827.786 477.566C831.038 479.491 833.673 482.19 835.693 485.662C837.714 489.103 838.724 493.206 838.724 497.973C838.724 503.118 837.445 507.711 834.889 511.751C832.363 515.76 828.623 518.932 823.667 521.268C818.711 523.604 812.603 524.772 805.343 524.772H763.913ZM784.415 508.011H801.129C806.843 508.011 811.009 506.922 813.629 504.743C816.249 502.534 817.559 499.598 817.559 495.937C817.559 493.254 816.912 490.886 815.618 488.834C814.324 486.783 812.477 485.173 810.078 484.005C807.711 482.837 804.885 482.253 801.603 482.253H784.415V508.011ZM784.415 468.38H799.614C802.423 468.38 804.917 467.891 807.095 466.912C809.305 465.902 811.041 464.482 812.303 462.651C813.598 460.82 814.245 458.626 814.245 456.069C814.245 452.566 812.998 449.74 810.504 447.594C808.042 445.448 804.538 444.374 799.993 444.374H784.415V468.38ZM851.685 524.772V452.045H871.24V464.734H871.998C873.324 460.22 875.549 456.811 878.674 454.507C881.799 452.171 885.397 451.003 889.469 451.003C890.479 451.003 891.568 451.066 892.736 451.192C893.904 451.319 894.93 451.492 895.814 451.713V469.611C894.867 469.327 893.557 469.074 891.884 468.853C890.211 468.632 888.68 468.522 887.291 468.522C884.324 468.522 881.673 469.169 879.337 470.463C877.033 471.726 875.202 473.494 873.844 475.766C872.519 478.039 871.856 480.659 871.856 483.626V524.772H851.685ZM924.898 526.145C920.258 526.145 916.123 525.34 912.493 523.73C908.862 522.089 905.99 519.674 903.875 516.486C901.792 513.266 900.75 509.257 900.75 504.459C900.75 500.419 901.492 497.026 902.975 494.28C904.459 491.533 906.479 489.324 909.036 487.651C911.593 485.978 914.497 484.715 917.748 483.863C921.031 483.011 924.472 482.411 928.07 482.064C932.3 481.622 935.709 481.211 938.297 480.833C940.886 480.422 942.764 479.822 943.932 479.033C945.1 478.244 945.684 477.076 945.684 475.53V475.245C945.684 472.247 944.737 469.927 942.843 468.285C940.98 466.644 938.329 465.823 934.888 465.823C931.258 465.823 928.37 466.628 926.224 468.238C924.077 469.816 922.657 471.805 921.962 474.204L903.307 472.689C904.254 468.269 906.116 464.45 908.894 461.23C911.672 457.979 915.255 455.485 919.642 453.749C924.061 451.982 929.175 451.098 934.983 451.098C939.023 451.098 942.89 451.571 946.583 452.518C950.308 453.465 953.607 454.933 956.479 456.922C959.383 458.91 961.672 461.467 963.345 464.592C965.018 467.686 965.854 471.394 965.854 475.719V524.772H946.725V514.687H946.157C944.989 516.959 943.427 518.964 941.47 520.7C939.513 522.404 937.161 523.746 934.415 524.725C931.669 525.671 928.496 526.145 924.898 526.145ZM930.674 512.225C933.641 512.225 936.261 511.641 938.534 510.473C940.807 509.273 942.59 507.663 943.884 505.643C945.179 503.623 945.826 501.334 945.826 498.778V491.06C945.194 491.47 944.326 491.849 943.222 492.196C942.148 492.512 940.933 492.812 939.576 493.096C938.218 493.348 936.861 493.585 935.504 493.806C934.147 493.995 932.915 494.169 931.811 494.327C929.443 494.674 927.376 495.226 925.608 495.984C923.84 496.742 922.467 497.767 921.489 499.062C920.51 500.324 920.021 501.903 920.021 503.797C920.021 506.543 921.015 508.642 923.004 510.094C925.024 511.514 927.581 512.225 930.674 512.225ZM1042.01 472.783L1023.55 473.92C1023.23 472.341 1022.55 470.921 1021.51 469.658C1020.47 468.364 1019.1 467.338 1017.39 466.581C1015.72 465.792 1013.72 465.397 1011.38 465.397C1008.25 465.397 1005.62 466.06 1003.47 467.386C1001.33 468.68 1000.25 470.416 1000.25 472.594C1000.25 474.33 1000.95 475.798 1002.34 476.997C1003.72 478.197 1006.11 479.16 1009.49 479.886L1022.65 482.537C1029.72 483.989 1034.99 486.325 1038.46 489.545C1041.94 492.764 1043.67 496.994 1043.67 502.234C1043.67 507 1042.27 511.183 1039.46 514.781C1036.68 518.38 1032.86 521.189 1028 523.209C1023.17 525.198 1017.6 526.192 1011.28 526.192C1001.66 526.192 993.987 524.188 988.274 520.179C982.592 516.139 979.262 510.646 978.283 503.702L998.122 502.66C998.722 505.596 1000.17 507.837 1002.48 509.384C1004.78 510.899 1007.73 511.656 1011.33 511.656C1014.87 511.656 1017.71 510.978 1019.85 509.62C1022.03 508.231 1023.14 506.448 1023.17 504.27C1023.14 502.439 1022.36 500.94 1020.85 499.772C1019.33 498.572 1017 497.657 1013.84 497.026L1001.25 494.516C994.145 493.096 988.858 490.634 985.385 487.13C981.945 483.626 980.224 479.16 980.224 473.73C980.224 469.059 981.487 465.034 984.012 461.656C986.569 458.279 990.152 455.675 994.76 453.844C999.4 452.013 1004.83 451.098 1011.05 451.098C1020.23 451.098 1027.46 453.039 1032.73 456.922C1038.04 460.804 1041.13 466.091 1042.01 472.783ZM1056.37 524.772V452.045H1076.54V524.772H1056.37ZM1066.5 442.67C1063.51 442.67 1060.93 441.675 1058.79 439.687C1056.67 437.667 1055.61 435.252 1055.61 432.443C1055.61 429.665 1056.67 427.282 1058.79 425.293C1060.93 423.273 1063.51 422.263 1066.5 422.263C1069.5 422.263 1072.06 423.273 1074.18 425.293C1076.32 427.282 1077.4 429.665 1077.4 432.443C1077.4 435.252 1076.32 437.667 1074.18 439.687C1072.06 441.675 1069.5 442.67 1066.5 442.67ZM1112.87 427.802V524.772H1092.7V427.802H1112.87Z" fill="black"/>
</svg>
